<?xml version="1.0" encoding="UTF-8"?>
<svg id="_レイヤー_1" data-name="レイヤー_1" xmlns="http://www.w3.org/2000/svg" viewBox="0 0 130.73 16.71">
  <g>
    <path d="M2.77,4.42c.05.7.16,1.58.27,2.2.26,1.51.85,4.6,1.2,6.16.31,1.36,1.19,1.62,2.15,1.4,2.21-.5,3.41-2.12,4.09-3.95l1.99,1.57c-.58,1.56-2.25,3.99-5.57,4.73-2.48.56-4.28-.21-4.84-2.7-.4-1.79-1.13-5.62-1.37-6.7-.17-.76-.42-1.52-.7-2.13l2.77-.59ZM8.42,6.74l-1.39,1c-.68-.89-1.1-1.4-1.83-2.06l1.35-.95c.58.55,1.41,1.43,1.87,2.01ZM10.23,5.4l-1.33,1.05c-.72-.88-1.16-1.34-1.89-1.97l1.33-1.01c.58.52,1.44,1.37,1.89,1.93Z" style="fill: #606060;"/>
    <path d="M14.64,3.44c.82-.19,3.14-.81,4.76-.7,2.07.14,3.62,1.44,3.48,3.58-.17,2.41-2.52,4.03-6.68,3.94l-.65-1.83c3.03.15,5.3-.55,5.42-2.28.07-.96-.52-1.73-1.75-1.81-1.52-.1-4.06.76-5.41,1.25l-.61-1.91c.4-.04,1.06-.16,1.45-.25Z" style="fill: #606060;"/>
    <path d="M27.47,5.45c-.13.3-.32.85-.33,1.14-.03.64.18,1.12,1.55,1.19,1.43.07,2.04-.05,2.78-.15l-.11,1.58c-.53.07-1.45.18-2.74.11-2.08-.11-3.14-.93-3.07-2.39.02-.44.19-1.11.37-1.68l1.56.2ZM32.47.46c.23.38.55,1.06.71,1.42l-.39.14.15,1.07c-.47.11-1.02.22-1.61.31.33.82.73,1.69,1.13,2.47l-.88.86c-.6-.15-1.57-.37-2.36-.51l.19-1.23c.31.05.76.11,1.04.13-.19-.44-.43-.98-.67-1.55-1.2.06-2.59-.01-4.18-.23l.03-1.54c1.41.25,2.57.33,3.59.31l-.13-.34c-.16-.42-.25-.64-.48-1.04l1.72-.24c.11.47.27.95.46,1.48.43-.06.81-.13,1.2-.22-.15-.33-.33-.69-.49-.96l.96-.33ZM33.74.08c.24.4.57,1.06.72,1.41l-.96.35c-.18-.42-.47-1.03-.72-1.43l.96-.33Z" style="fill: #606060;"/>
    <path d="M37.43,2.46c0,.71,0,1.42.05,2.14.12,1.42.33,2.42.96,2.42.5,0,.89-1.35,1.05-2.08l1.31,1.63c-.77,1.91-1.46,2.58-2.41,2.57-1.28,0-2.33-1.11-2.62-4.07-.1-1.03-.1-2.26-.1-2.95,0-.33-.02-.79-.09-1.17l2.01.04c-.09.46-.16,1.16-.16,1.47ZM44.85,6.89l-1.74.65c-.14-1.63-.65-4.4-1.9-5.78l1.68-.53c1.05,1.25,1.89,4.1,1.97,5.66Z" style="fill: #606060;"/>
    <path d="M47.51.07c-.02.46-.02,1.05,0,1.47.06,1.02.21,3.1.32,4.16.1.92.66,1.16,1.31,1.09,1.5-.16,2.42-1.14,3-2.29l1.2,1.19c-.51.99-1.8,2.46-4.04,2.69-1.68.18-2.81-.47-2.99-2.15-.13-1.21-.31-3.8-.39-4.53-.05-.52-.16-1.04-.3-1.46l1.88-.18Z" style="fill: #606060;"/>
    <path d="M59.38,2.74c-.39.08-.96.16-1.59.21-.52,1.27-1.42,2.83-2.24,3.85l-1.31-.78c.79-.86,1.59-2.11,2.06-3.04-.1,0-.21,0-.3-.01-.39-.03-.77-.06-1.19-.12v-1.3c.41.08.96.13,1.27.15.24.02.48.02.72.02.17-.5.29-1.02.34-1.5l1.52.25c-.09.29-.22.7-.38,1.16.44-.05.84-.12,1.15-.19l-.05,1.29ZM60.63,3.53c-.06.4-.07.84-.09,1.3,0,.22-.01.58-.02.97.78.36,1.41.88,1.83,1.34l-.82,1.16c-.27-.29-.62-.67-1.06-1.02-.09.89-.62,1.52-1.99,1.42-1.23-.08-2.14-.72-2.07-1.8.06-.93.85-1.67,2.28-1.57.17.01.33.03.48.06,0-.67.02-1.43.03-1.95l1.41.1ZM59.15,6.55c-.19-.05-.41-.09-.62-.11-.46-.03-.75.14-.77.4-.02.3.22.52.61.55.55.04.74-.28.78-.79v-.05ZM62.03,4.25c-.52-.47-1.56-1.17-2.19-1.49l.8-1.06c.64.34,1.8,1.05,2.27,1.43l-.88,1.12Z" style="fill: #606060;"/>
    <path d="M65.38,3.33c-.1.55-.2,1.1-.25,1.67-.1,1.12-.07,1.92.41,2.01.39.07.88-.92,1.1-1.47l.79,1.44c-.86,1.38-1.49,1.8-2.22,1.67-.99-.18-1.66-1.18-1.47-3.52.06-.81.23-1.77.33-2.3.05-.25.1-.61.09-.92l1.55.3c-.13.34-.28.88-.33,1.12ZM70.53,7.79l-1.44.27c.11-1.28.1-3.5-.69-4.75l1.37-.19c.64,1.12.91,3.44.75,4.66Z" style="fill: #606060;"/>
  </g>
  <g>
    <path d="M85.18,14.78l.04,1.33c.02.15-.11.29-.27.3-.02,0-1.86.09-4.2.09s-4.18-.09-4.2-.09c-.15-.02-.29-.15-.27-.3l.04-1.33c.02-.15.15-.29.3-.27.02,0,1.2.04,2.62.06v-.38c-1.31-.02-2.3-.06-2.32-.06-.15,0-.27-.13-.27-.29v-1.16c0-.08.04-.13.08-.19.06-.06.13-.1.21-.1l2.26.02v-.42c-1.14-.02-2.15-.06-2.15-.06-.13,0-.25-.09-.28-.23,0-.04-.13-.74-.25-2.74-.13-2.01-.11-3.55-.11-3.57,0-.13.11-.25.25-.27.02-.02,1.12-.15,2.49-.21v-.44c-1.41.02-2.54.06-2.56.06-.15.02-.29-.11-.29-.27l-.06-1.35c0-.15.11-.28.27-.3.02,0,1.1-.06,2.64-.08v-.34c-1.31-.06-2.37-.19-2.39-.19-.15-.02-.25-.13-.25-.29l.1-1.31c.02-.15.13-.27.28-.25.02,0,2.05.08,3.91.04,2.18-.04,3.76-.17,3.78-.17.13-.02.27.09.29.23l.15,1.08c.02.13-.06.27-.19.3-.06,0-1.06.28-2.39.44v.46c1.46.02,2.47.08,2.47.08.15.02.28.15.27.3l-.04,1.35c0,.15-.13.28-.3.27,0,0-1.06-.04-2.39-.06v.47c.57.04,1.03.13,1.37.25.63.23.99.59,1.16,1.16.13.4.19.89.19,1.56,0,.34-.02.72-.06,1.16-.08,1.08-.29,2.58-.29,2.6-.02.13-.13.25-.27.25-.02,0-1.01.04-2.17.06,0,.15,0,.29-.02.42l2.22-.02c.08,0,.13.04.19.1.06.06.1.11.1.19v1.16c0,.15-.13.29-.29.29,0,0-.97.04-2.24.06v.38c1.39-.02,2.51-.06,2.53-.06.15-.02.29.11.3.27ZM78.47,7.6c.21,0,.44,0,.68-.02v-.61c-.28,0-.53.02-.7.04,0,.15.02.38.02.59ZM78.55,9.06c.02.25.04.46.06.59.15.02.36.02.57.02v-.61h-.63ZM82.41,9.67c.25,0,.46-.02.57-.02.02-.13.04-.34.06-.59h-.61c0,.21,0,.4-.02.61ZM83.13,7.58c0-.13-.02-.23-.04-.3-.02-.08-.08-.17-.13-.21-.04-.02-.15-.06-.46-.08h-.06c0,.19-.02.4-.02.59.27.02.49.02.7.02v-.02ZM92.68,10.2c-.11,3.21-.29,6.04-.29,6.06-.02.15-.13.27-.29.27h-2.22c-.08,0-.15-.02-.19-.08-.06-.06-.09-.13-.09-.21l.04-4.29c0-1.6-.02-4.1-.04-4.39,0-.44-.06-.61-.19-.7-.04-.04-.13-.06-.23-.08-.04,1.01-.08,2.03-.15,3.04-.29,3.82-.99,6.63-.99,6.67-.04.13-.17.23-.32.21l-2.01-.36c-.13-.04-.25-.17-.23-.32,0-.04.49-3.74.65-8.23.02-.36.02-.7.04-1.03h-.48c-.08,0-.15-.02-.21-.08-.06-.06-.08-.11-.08-.19l-.09-4.12c0-.13.09-.25.23-.28.04,0,.3-.06.74-.13V.34c0-.08.02-.13.08-.19s.13-.09.21-.09h2.36c.17,0,.29.13.29.28,0,.02.02.55.04,1.42,1.48.04,2.39.34,3.02,1.54.55,1.1.51,3.78.42,6.9Z" style="fill: #489919;"/>
    <path d="M100.95,12.98v3.21c0,.15-.13.28-.29.28h-2.79c-.15,0-.27-.13-.29-.28v-2.57c-1.1.06-1.84,0-1.88,0-.15-.02-.27-.13-.27-.28v-3.65c0-.08.04-.15.09-.21.06-.06.13-.08.23-.08,0,0,.63.06,1.84.02,0-.4,0-.78.02-1.2,0-.59.02-1.18.02-1.75-.27-.02-.49-.04-.65-.04-.57-.06-.74-.15-1.12-.49-.74-.68-.57-2.72-.55-2.94l.19-2.58c.02-.15.15-.27.3-.27l1.23.06c.15,0,.29.13.29.28l-.04,1.04v.85c.11,0,.27,0,.44.02.04-1.31.06-2.13.06-2.15.02-.15.13-.27.29-.27h2.37c.15,0,.27.11.29.27,0,.02.02.84.06,2.15l.74-.02c.08,0,.15.04.21.1.06.04.09.11.09.19v3.44c0,.13-.11.25-.25.27-.02.02-.27.04-.7.08.02.57.02,1.16.04,1.77v.93c.34-.04.59-.06.59-.06.08-.02.15,0,.23.06.06.06.09.13.09.21l.09,2.98c.02.09-.04.21-.13.25-.04.02-.34.19-.85.38ZM105,7.41s-.08,2-.4,4.43c-.36,2.85-.82,4.35-.84,4.41-.04.13-.19.23-.32.19l-1.46-.27c-.15-.02-.25-.17-.23-.32,0-.02.32-2.11.65-4.71l.48-3.93c.02-.17.15-.28.3-.27l1.58.19c.15,0,.25.13.25.28ZM111.91,9.37l-.02.47c-.08,3-.25,6.33-.25,6.36-.02.15-.13.27-.29.27h-2.7c-.15,0-.29-.13-.29-.28,0-.04,0-3.33-.06-5.55-.08-2.77-.13-4.71-.15-4.94-.04-.32-.13-.4-.21-.44-.21-.1-.61-.13-1.22-.15h-.3c-.38,0-.78.02-1.12.06-.13.8-.3,1.23-.32,1.25-.04.11-.15.19-.27.19l-2.32-.08c-.08,0-.15-.04-.19-.1-.06-.06-.09-.13-.08-.21,0-.02.1-1.44.1-3.25,0-1.5-.04-2.68-.04-2.7-.02-.08.02-.15.08-.21.06-.06.11-.08.21-.08h2.47c.13,0,.25.09.27.23.02.02.08.32.13.78.8-.06,1.63-.1,2.09-.1,2.3.06,3.06.13,3.89,1.44.72,1.16.63,4.41.57,7.01ZM107.96,7.41s-.08,2-.4,4.43c-.38,2.85-.84,4.35-.86,4.41-.04.13-.17.23-.32.19l-1.44-.27c-.15-.02-.27-.17-.23-.32,0-.02.32-2.11.65-4.71l.46-3.93c.02-.17.15-.28.32-.27l1.56.19c.15,0,.27.13.27.28Z" style="fill: #994d1a;"/>
    <path d="M130.61,9.19c-.11,2.64-.57,6.93-.59,6.97,0,.15-.13.27-.27.27-.04,0-3.99.1-7.11.1s-7.45-.1-7.5-.1c-.13,0-.27-.11-.27-.27v-.06c-.13-2.09-.32-4.96-.47-8.21-.13-3.29-.11-7.2-.11-7.24,0-.13.11-.27.27-.29.04,0,3.69-.3,7.37-.3,3.17,0,5.3.15,6.34.46,1.22.36,1.67.87,2.03,1.56.55,1.1.46,4.26.3,7.1ZM127.11,2.7c-.13-.06-.48-.15-1.44-.27-.72-.08-2.18-.13-3.46-.13-2.3,0-4.39.13-5.09.19,0,.76.02,3.1.1,5.3.08,2.55.21,5.45.27,6.31.84.02,3.46.08,4.98.08,1.48.02,4.2-.06,5.03-.08.06-.76.21-3.08.25-5.24v-.55c.02-.8.04-1.73.04-2.56,0-1.03-.04-1.9-.11-2.24-.06-.23-.21-.63-.55-.8ZM126.9,10.35l.42.91c.04.11.02.25-.06.32-.04.02-.23.19-.68.4.34.38.63.59.63.61.08.06.11.15.11.25-.02.09-.08.17-.15.23l-1.44.76c-.06.04-.13.06-.19.04-.06-.02-1.56-.29-2.3-1.56-.34-.63-.47-1.37-.49-1.92-.13.21-.32.44-.57.65l.04.78c.02.99,0,1.63,0,1.65,0,.15-.11.29-.29.29h-2.28c-.08,0-.13-.04-.19-.08-.06-.06-.09-.13-.09-.21l.02-1.35c-.57.09-.99.13-1.03.13-.13,0-.25-.08-.29-.19l-.44-1.03c-.02-.06-.02-.15.02-.23.04-.06.09-.11.17-.15,0,0,.86-.27,1.63-.61v-.04l-.87-.02c-.11,0-.23-.08-.27-.19,0-.02-.17-.49-.3-1.12-.13-.68-.13-1.23-.11-1.27,0-.13.11-.27.27-.27.02,0,2.28-.06,4.03-.06,1.22-.02,2.83,0,3.57.1.7.08,1.01.19,1.23.46.25.29.19.7.11,1.16-.08.51-.27.99-.27,1.01-.06.11-.15.17-.27.17-.02,0-.47.02-1.14.04.06.15.11.32.17.51.06-.02.09-.04.15-.04.38-.11.78-.27.78-.27.13-.06.3,0,.36.13ZM124.61,3.38l2.18.02c.17,0,.29.11.29.29v.78c0,.17-.11.29-.29.29l-2.22.02c-.02.15-.02.3-.04.44h2.39c.15,0,.29.11.29.29l.04.95c0,.08-.02.15-.08.21s-.13.08-.21.1l-4.48.04-4.5-.04c-.09-.02-.15-.04-.21-.1-.06-.06-.08-.13-.08-.21l.06-.97c0-.15.13-.27.29-.27h2.39c-.02-.13-.04-.28-.04-.44l-2.24-.02c-.15,0-.29-.11-.29-.29v-.78c0-.17.13-.29.29-.29l2.2-.02v-.38c0-.15.13-.28.29-.28h3.69c.15,0,.27.13.29.28v.38ZM121.68,8.64h1.79c0-.06.02-.11.02-.17,0,0,.02-.15.02-.17-.02-.04-.04-.04-.06-.06-.15-.04-.53-.04-.93-.04h-.04s-.53.02-.87.04c.04.17.06.3.08.4Z" style="fill: #1a7899;"/>
  </g>
</svg>